<svg xmlns="http://www.w3.org/2000/svg" version="1.1" xmlns:xlink="http://www.w3.org/1999/xlink" xmlns:svgjs="http://svgjs.dev/svgjs" width="1500" height="840" viewBox="0 0 1500 840"><g transform="matrix(1,0,0,1,-0.9065175795334426,-0.014193305685182622)"><svg viewBox="0 0 396 222" data-background-color="#231239" preserveAspectRatio="xMidYMid meet" height="840" width="1500" xmlns="http://www.w3.org/2000/svg" xmlns:xlink="http://www.w3.org/1999/xlink"><g id="tight-bounds" transform="matrix(1,0,0,1,0.2405288425911749,0.0037510879310787004)"><svg viewBox="0 0 395.52 221.99249782413784" height="221.99249782413784" width="395.52"><g><svg viewBox="0 0 395.52 221.99249782413784" height="221.99249782413784" width="395.52"><g transform="matrix(1,0,0,1,0,140.80805221052537)"><svg viewBox="0 0 395.52 81.18444561361248" height="81.18444561361248" width="395.52"><g id="textblocktransform"><svg viewBox="0 0 395.52 81.18444561361248" height="81.18444561361248" width="395.52" id="textblock"><g><svg viewBox="0 0 395.52 81.18444561361248" height="81.18444561361248" width="395.52"><g transform="matrix(1,0,0,1,0,0)"><svg width="395.52" viewBox="-0.20943448055667865 -28.450666865696046 214.58045611991676 44.04477729498025" height="81.18444561361248" data-palette-color="#f4ab4f"><path d="M14.143 15.424v0c-1.763 0.326-3.458 0.182-5.083-0.432v0c-1.614-0.623-2.982-1.607-4.106-2.952-1.13-1.343-1.865-2.936-2.207-4.778v0l-2.768-15.231c-0.335-1.809-0.225-3.521 0.331-5.136v0c0.553-1.628 1.474-3.025 2.763-4.193 1.283-1.166 2.815-1.914 4.599-2.244v0c1.809-0.335 3.499-0.197 5.07 0.414v0c1.592 0.614 2.951 1.583 4.077 2.907 1.128 1.33 1.86 2.907 2.197 4.729v0l0.415 2.242c0.023 0.125-0.031 0.199-0.162 0.223v0l-5.477 1.014c-0.125 0.023-0.198-0.028-0.221-0.152v0l-0.415-2.242c-0.199-1.075-0.721-1.938-1.567-2.588-0.846-0.65-1.79-0.879-2.833-0.686v0c-1.16 0.215-1.978 0.776-2.454 1.684-0.469 0.907-0.607 1.885-0.413 2.935v0l2.817 15.221c0.221 1.193 0.748 2.102 1.583 2.728 0.841 0.624 1.763 0.843 2.766 0.657v0c1.042-0.193 1.837-0.771 2.384-1.733 0.547-0.962 0.725-1.961 0.534-2.997v0l-0.419-2.261c-0.023-0.125 0.028-0.198 0.153-0.222v0l5.526-1.023c0.125-0.023 0.198 0.028 0.221 0.153v0l0.419 2.261c0.338 1.829 0.221 3.576-0.352 5.242v0c-0.602 1.657-1.534 3.067-2.797 4.229-1.264 1.156-2.791 1.9-4.581 2.231zM32.217 11.974v0l-5.564 0.788c-0.132 0.019-0.209-0.051-0.232-0.209v0l-4.735-33.76c-0.018-0.125 0.053-0.199 0.211-0.222v0l5.476-0.776c0.158-0.022 0.247 0.029 0.264 0.155v0l1.845 13.373 7.366-1.044-1.894-13.366c-0.018-0.125 0.036-0.197 0.161-0.215v0l5.466-0.775c0.165-0.023 0.256 0.028 0.274 0.153v0l4.873 33.74c0.022 0.158-0.046 0.249-0.204 0.272v0l-5.515 0.781c-0.158 0.022-0.249-0.046-0.271-0.204v0l-2.048-14.445-7.366 1.044 2.047 14.446c0.022 0.158-0.029 0.247-0.154 0.264zM47.342 9.674v0l2.842-34.524c0.021-0.129 0.098-0.2 0.23-0.213v0l7.157-0.692c0.126-0.012 0.212 0.043 0.257 0.166v0l9.163 33.364c0.035 0.157-0.02 0.243-0.166 0.257v0l-5.475 0.529c-0.159 0.015-0.257-0.056-0.291-0.213v0l-0.878-3.572-6.729 0.65-0.177 3.675c0.002 0.161-0.07 0.248-0.216 0.262v0l-5.504 0.532c-0.126 0.012-0.197-0.061-0.213-0.221zM58.685-0.404l-3.37-13.669-0.466-1.804-0.032 1.852-0.879 14.08zM74.834 7.56v0l-4.952 0.285c-0.26 0.015-0.396-0.091-0.409-0.317v0l-1.995-33.731c-0.015-0.26 0.107-0.397 0.367-0.412v0l4.472-0.257 9.492 19.035-1.343-19.115c-0.015-0.26 0.124-0.398 0.417-0.414v0l4.912-0.284c0.193-0.011 0.297 0.113 0.312 0.373v0l1.988 33.782c0.011 0.193-0.063 0.294-0.223 0.303v0l-4.353 0.251-9.637-17.745 1.388 17.83c0.015 0.26-0.131 0.398-0.436 0.416zM100.764 7.107v0c-1.793 0.025-3.416-0.396-4.868-1.263v0c-1.465-0.867-2.648-2.044-3.549-3.532-0.901-1.494-1.364-3.168-1.389-5.021v0l-0.216-15.719c-0.025-1.813 0.396-3.469 1.262-4.968v0c0.853-1.512 2.009-2.725 3.471-3.638 1.454-0.92 3.055-1.392 4.801-1.416v0c1.82-0.025 3.472 0.389 4.957 1.242v0c1.479 0.866 2.662 2.037 3.549 3.512 0.887 1.475 1.343 3.142 1.369 5.002v0l0.031 2.27c0.002 0.133-0.081 0.201-0.247 0.203v0l-5.57 0.076c-0.127 0.002-0.191-0.064-0.193-0.197v0l-0.026-1.89c-0.017-1.26-0.388-2.295-1.112-3.105-0.718-0.817-1.61-1.218-2.677-1.203v0c-0.953 0.013-1.798 0.421-2.534 1.225-0.729 0.803-1.086 1.738-1.071 2.805v0l0.216 15.718c0.015 1.08 0.391 2.008 1.128 2.785 0.737 0.77 1.599 1.148 2.586 1.135v0c1.067-0.015 1.948-0.41 2.644-1.187 0.703-0.776 1.046-1.721 1.031-2.834v0l-0.034-2.45-3.469 0.048c-0.173 0.002-0.261-0.076-0.264-0.237v0l-0.076-5.549c-0.002-0.16 0.083-0.241 0.257-0.244v0l9.279-0.127c0.133-0.002 0.201 0.077 0.203 0.237v0l0.113 8.239c0.025 1.853-0.388 3.539-1.24 5.058v0c-0.873 1.512-2.03 2.721-3.471 3.628-1.441 0.907-3.071 1.372-4.891 1.397zM122.88 6.849v0l-5.598-0.147c-0.147-0.004-0.218-0.086-0.214-0.245v0l0.742-28.291-6.437-0.169c-0.16-0.004-0.238-0.086-0.234-0.246v0l0.195-5.547c0.003-0.127 0.068-0.188 0.195-0.185v0l18.844 0.495c0.173 0.005 0.258 0.07 0.255 0.197v0l-0.146 5.548c-0.004 0.16-0.07 0.238-0.196 0.235v0l-6.518-0.171-0.692 28.291c-0.004 0.16-0.07 0.238-0.196 0.235zM147.728 8.128v0l-16.001-0.973c-0.133-0.008-0.195-0.092-0.185-0.252v0l2.119-34.024c0.008-0.126 0.075-0.186 0.202-0.178v0l15.91 0.967c0.133 0.008 0.195 0.092 0.185 0.252v0l-0.337 5.54c-0.008 0.126-0.078 0.186-0.211 0.177v0l-10.151-0.617-0.47 7.736 10.151 0.617c0.133 0.008 0.196 0.079 0.187 0.212v0l-0.291 5.613c-0.008 0.126-0.078 0.186-0.211 0.177v0l-10.201-0.62-0.527 8.664 10.201 0.62c0.133 0.008 0.195 0.092 0.185 0.252v0l-0.344 5.659c-0.008 0.126-0.078 0.186-0.211 0.178zM167.787 10.133v0l-15.951-1.598c-0.133-0.013-0.191-0.1-0.175-0.258v0l3.448-33.916c0.013-0.126 0.082-0.183 0.208-0.17v0l15.861 1.589c0.133 0.013 0.191 0.1 0.175 0.259v0l-0.553 5.522c-0.013 0.126-0.085 0.182-0.218 0.169v0l-10.12-1.013-0.772 7.711 10.119 1.014c0.133 0.013 0.192 0.086 0.179 0.219v0l-0.51 5.597c-0.013 0.126-0.085 0.182-0.218 0.169v0l-10.169-1.019-0.866 8.637 10.17 1.019c0.133 0.013 0.191 0.1 0.175 0.258v0l-0.566 5.642c-0.013 0.126-0.085 0.182-0.217 0.169zM188.645 13.093v0l-18.326-2.608c-0.158-0.023-0.226-0.113-0.203-0.272v0l0.81-5.339 15.313-21.295-11.395-1.621c-0.145-0.021-0.209-0.094-0.191-0.219v0l0.734-5.158c0.023-0.158 0.106-0.227 0.251-0.207v0l17.771 2.529c0.158 0.023 0.226 0.113 0.204 0.271v0l-0.754 5.297-15.226 21.186 11.83 1.684c0.125 0.018 0.176 0.113 0.152 0.284v0l-0.699 5.264c-0.023 0.158-0.113 0.226-0.271 0.204zM201.453 15.415v0l-5.607-1.022c-0.112-0.02-0.156-0.093-0.133-0.217v0l2.576-13.863-2.941-20.905c-0.004-0.129 0.057-0.183 0.182-0.16v0l5.43 0.989c0.164 0.03 0.248 0.11 0.252 0.239v0l1.208 13.79 6.062-12.466c0.056-0.119 0.149-0.166 0.28-0.142v0l5.48 0.999c0.125 0.023 0.159 0.093 0.103 0.212v0l-10.157 18.316-2.514 14.077c-0.023 0.125-0.096 0.176-0.221 0.153z" opacity="1" transform="matrix(1,0,0,1,0,0)" fill="#f4ab4f" class="wordmark-text-0" data-fill-palette-color="primary" id="text-0"></path></svg></g></svg></g></svg></g></svg></g><g transform="matrix(1,0,0,1,155.65886333165673,0)"><svg viewBox="0 0 84.20227333668653 116.90722537251422" height="116.90722537251422" width="84.20227333668653"><g><svg xmlns="http://www.w3.org/2000/svg" xmlns:xlink="http://www.w3.org/1999/xlink" version="1.1" x="0" y="0" viewBox="11.8 9.3 81.10000000000001 112.60000000000001" enable-background="new 0 0 108.3 129.2" xml:space="preserve" height="116.90722537251422" width="84.20227333668653" class="icon-icon-0" data-fill-palette-color="accent" id="icon-0"><g fill="#f4ab4f" data-fill-palette-color="accent"><g fill="#f4ab4f" data-fill-palette-color="accent"><g fill="#f4ab4f" data-fill-palette-color="accent"><g fill="#f4ab4f" data-fill-palette-color="accent"><path fill="#f4ab4f" d="M71 121.4C67 121.4 63.8 119.9 62.1 118.5L61.8 118.2 50.2 106 54 102.4 65.4 114.5C66.3 115.1 71.7 118.5 78.3 113.5 80.3 112 81.4 110.3 81.6 108.5 81.9 105.3 79.5 102.4 79.4 102.4L65.8 88.4 69.6 84.7 83.2 98.8C83.4 99.1 87.3 103.5 86.7 109 86.4 112.4 84.6 115.3 81.3 117.7 77.8 120.5 74.2 121.4 71 121.4" data-fill-palette-color="accent"></path></g></g></g><g fill="#f4ab4f" data-fill-palette-color="accent"><g fill="#f4ab4f" data-fill-palette-color="accent"><g fill="#f4ab4f" data-fill-palette-color="accent"><path fill="#f4ab4f" d="M72 109.4C71.5 109.4 71.1 109.2 70.7 108.9L58.3 95.9C57.6 95.2 57.7 94.1 58.4 93.4S60.2 92.8 60.9 93.5L73.3 106.5C74 107.2 73.9 108.3 73.2 109 72.8 109.2 72.4 109.4 72 109.4" data-fill-palette-color="accent"></path></g></g></g><g fill="#f4ab4f" data-fill-palette-color="accent"><g fill="#f4ab4f" data-fill-palette-color="accent"><g fill="#f4ab4f" data-fill-palette-color="accent"><path fill="#f4ab4f" d="M30.1 109.7C29.7 109.7 29.2 109.5 28.9 109.2 28.2 108.5 28.2 107.4 28.9 106.7L67.8 67C69.6 65.4 74.3 61 75.5 59.2 77.2 56.7 77.3 53.2 77.3 49.8 77.2 36.1 66.1 25 52.4 25S27.6 36.1 27.6 49.8C27.6 55.1 28.6 59 30.6 61.8 33.6 65.9 44.8 76.7 44.9 76.8 45.6 77.5 45.6 78.6 44.9 79.3S43.1 80 42.4 79.3C42 78.8 31 68.2 27.8 63.9 25.3 60.5 24.1 55.9 24.1 49.9 24.1 34.3 36.8 21.6 52.4 21.6S80.7 34.3 80.7 49.9C80.7 53.8 80.5 57.9 78.3 61.2 76.7 63.7 70.8 69 70.1 69.6L31.3 109.2C31 109.5 30.5 109.7 30.1 109.7" data-fill-palette-color="accent"></path></g></g></g><g fill="#f4ab4f" data-fill-palette-color="accent"><g fill="#f4ab4f" data-fill-palette-color="accent"><g fill="#f4ab4f" data-fill-palette-color="accent"><path fill="#f4ab4f" d="M30.6 121.9C27.6 121.9 24.4 121 21.1 118.5 17.9 116 16 113.1 15.6 109.7 14.9 104.2 18.4 99.7 18.5 99.5L18.7 99.2 31.8 86.5 26.8 81.2C17.3 73.5 11.8 62 11.8 49.7 11.9 27.5 30 9.3 52.4 9.3S92.9 27.5 92.9 49.8C92.9 63.4 87.6 74.8 78 82L41.4 117.7C39.3 119.7 35.3 121.9 30.6 121.9M22.6 102.9C22.2 103.5 20.5 106.2 20.9 109.1 21.2 111 22.3 112.8 24.4 114.4 31.4 119.7 37.6 114.2 37.8 114L74.8 78C83.2 71.8 87.7 62.1 87.7 49.9 87.7 30.5 71.9 14.6 52.4 14.6S17.1 30.4 17.1 49.8C17.1 60.5 21.9 70.6 30.3 77.3L30.6 77.5 35.7 82.9 48.6 70.4 38 59.4C36.1 56.5 35 53.2 35 49.7 35 40.2 42.8 32.4 52.3 32.4S69.6 40.2 69.6 49.7C69.6 53.2 68.6 56.5 66.6 59.4L66.3 59.8 55.7 70.8zM42.3 56.4L52.4 66.8 62.5 56.4C63.8 54.5 64.4 52.2 64.4 49.9 64.4 43.3 59 37.9 52.4 37.9S40.4 43.3 40.4 49.9C40.4 52.2 41 54.4 42.3 56.4" data-fill-palette-color="accent"></path></g></g></g></g></svg></g></svg></g><g></g></svg></g><defs></defs></svg><rect width="395.52" height="221.99249782413784" fill="none" stroke="none" visibility="hidden"></rect></g></svg></g></svg>